<mxfile host="Electron" modified="2024-06-25T22:45:53.692Z" agent="Mozilla/5.0 (X11; Linux x86_64) AppleWebKit/537.36 (KHTML, like Gecko) draw.io/24.6.1 Chrome/124.0.6367.207 Electron/30.0.6 Safari/537.36" etag="4exwNB64v90GqZYMfDXf" version="24.6.1" type="device">
  <diagram name="‫עמוד-1‬" id="esW-ccSCnpv-T-beDWI7">
    <mxGraphModel dx="989" dy="578" grid="1" gridSize="10" guides="1" tooltips="1" connect="1" arrows="1" fold="1" page="1" pageScale="1" pageWidth="827" pageHeight="1169" math="0" shadow="0">
      <root>
        <mxCell id="0" />
        <mxCell id="1" parent="0" />
        <mxCell id="n6aa7DPBWQq8oFq3DAKK-7" value="" style="rounded=0;orthogonalLoop=1;jettySize=auto;html=1;labelBackgroundColor=none;fontColor=default;fillColor=#f8cecc;strokeColor=#b85450;textDirection=rtl;" parent="1" source="n6aa7DPBWQq8oFq3DAKK-2" target="n6aa7DPBWQq8oFq3DAKK-6" edge="1">
          <mxGeometry relative="1" as="geometry" />
        </mxCell>
        <mxCell id="n6aa7DPBWQq8oFq3DAKK-17" style="rounded=0;orthogonalLoop=1;jettySize=auto;html=1;entryX=0.5;entryY=0;entryDx=0;entryDy=0;labelBackgroundColor=none;fontColor=default;fillColor=#d5e8d4;strokeColor=#82b366;textDirection=rtl;" parent="1" source="n6aa7DPBWQq8oFq3DAKK-2" target="n6aa7DPBWQq8oFq3DAKK-5" edge="1">
          <mxGeometry relative="1" as="geometry" />
        </mxCell>
        <mxCell id="n6aa7DPBWQq8oFq3DAKK-18" style="rounded=0;orthogonalLoop=1;jettySize=auto;html=1;entryX=0.5;entryY=0;entryDx=0;entryDy=0;labelBackgroundColor=none;fontColor=default;fillColor=#dae8fc;strokeColor=#6c8ebf;textDirection=rtl;" parent="1" source="n6aa7DPBWQq8oFq3DAKK-2" target="n6aa7DPBWQq8oFq3DAKK-3" edge="1">
          <mxGeometry relative="1" as="geometry" />
        </mxCell>
        <mxCell id="n6aa7DPBWQq8oFq3DAKK-2" value="חברת הייטק בע&quot;מ&lt;div&gt;-&lt;/div&gt;&lt;div&gt;10.0.0.0/24&lt;/div&gt;" style="rounded=1;whiteSpace=wrap;html=1;arcSize=50;labelBackgroundColor=none;fillColor=#fff2cc;strokeColor=#d6b656;textDirection=rtl;" parent="1" vertex="1">
          <mxGeometry x="408" y="265" width="120" height="60" as="geometry" />
        </mxCell>
        <mxCell id="n6aa7DPBWQq8oFq3DAKK-20" value="" style="edgeStyle=orthogonalEdgeStyle;rounded=0;orthogonalLoop=1;jettySize=auto;html=1;labelBackgroundColor=none;fontColor=default;fillColor=#dae8fc;strokeColor=#6c8ebf;textDirection=rtl;" parent="1" source="n6aa7DPBWQq8oFq3DAKK-3" target="n6aa7DPBWQq8oFq3DAKK-19" edge="1">
          <mxGeometry relative="1" as="geometry" />
        </mxCell>
        <mxCell id="n6aa7DPBWQq8oFq3DAKK-3" value="סניף 1 - ירושלים&lt;div&gt;-&lt;/div&gt;&lt;div&gt;10.1.0.0/16&lt;/div&gt;" style="shape=hexagon;perimeter=hexagonPerimeter2;whiteSpace=wrap;html=1;fixedSize=1;rounded=1;labelBackgroundColor=none;fillColor=#dae8fc;strokeColor=#6c8ebf;textDirection=rtl;" parent="1" vertex="1">
          <mxGeometry x="684" y="385" width="120" height="80" as="geometry" />
        </mxCell>
        <mxCell id="n6aa7DPBWQq8oFq3DAKK-33" value="" style="edgeStyle=orthogonalEdgeStyle;rounded=0;orthogonalLoop=1;jettySize=auto;html=1;labelBackgroundColor=none;fontColor=default;textDirection=rtl;fillColor=#d5e8d4;strokeColor=#82b366;" parent="1" source="n6aa7DPBWQq8oFq3DAKK-5" target="n6aa7DPBWQq8oFq3DAKK-32" edge="1">
          <mxGeometry relative="1" as="geometry" />
        </mxCell>
        <mxCell id="n6aa7DPBWQq8oFq3DAKK-5" value="סניף 3 - בת ים&lt;div&gt;-&lt;/div&gt;&lt;div&gt;10.3.0.0/16&lt;/div&gt;" style="shape=hexagon;perimeter=hexagonPerimeter2;whiteSpace=wrap;html=1;fixedSize=1;rounded=1;labelBackgroundColor=none;fillColor=#d5e8d4;strokeColor=#82b366;textDirection=rtl;" parent="1" vertex="1">
          <mxGeometry x="134" y="390" width="120" height="80" as="geometry" />
        </mxCell>
        <mxCell id="n6aa7DPBWQq8oFq3DAKK-26" value="" style="edgeStyle=orthogonalEdgeStyle;rounded=0;orthogonalLoop=1;jettySize=auto;html=1;labelBackgroundColor=none;fontColor=default;fillColor=#f8cecc;strokeColor=#b85450;textDirection=rtl;" parent="1" source="n6aa7DPBWQq8oFq3DAKK-6" target="n6aa7DPBWQq8oFq3DAKK-25" edge="1">
          <mxGeometry relative="1" as="geometry" />
        </mxCell>
        <mxCell id="n6aa7DPBWQq8oFq3DAKK-6" value="סניף 2 - תל אביב&lt;div&gt;-&lt;/div&gt;&lt;div&gt;10.2.0.0/16&lt;/div&gt;" style="shape=hexagon;perimeter=hexagonPerimeter2;whiteSpace=wrap;html=1;fixedSize=1;rounded=1;labelBackgroundColor=none;fillColor=#f8cecc;strokeColor=#b85450;textDirection=rtl;" parent="1" vertex="1">
          <mxGeometry x="408" y="385" width="120" height="80" as="geometry" />
        </mxCell>
        <mxCell id="n6aa7DPBWQq8oFq3DAKK-22" value="" style="edgeStyle=orthogonalEdgeStyle;rounded=0;orthogonalLoop=1;jettySize=auto;html=1;labelBackgroundColor=none;fontColor=default;fillColor=#dae8fc;strokeColor=#6c8ebf;textDirection=rtl;" parent="1" source="n6aa7DPBWQq8oFq3DAKK-19" target="n6aa7DPBWQq8oFq3DAKK-21" edge="1">
          <mxGeometry relative="1" as="geometry" />
        </mxCell>
        <mxCell id="n6aa7DPBWQq8oFq3DAKK-76" value="" style="edgeStyle=orthogonalEdgeStyle;rounded=0;orthogonalLoop=1;jettySize=auto;html=1;fillColor=#dae8fc;strokeColor=#6c8ebf;textDirection=rtl;" parent="1" source="n6aa7DPBWQq8oFq3DAKK-19" target="n6aa7DPBWQq8oFq3DAKK-74" edge="1">
          <mxGeometry relative="1" as="geometry" />
        </mxCell>
        <mxCell id="n6aa7DPBWQq8oFq3DAKK-19" value="מחלקה 1 - ההנהלה&lt;div&gt;-&lt;/div&gt;&lt;div&gt;10.1.10.0/24&lt;/div&gt;" style="whiteSpace=wrap;html=1;rounded=1;labelBackgroundColor=none;fillColor=#dae8fc;strokeColor=#6c8ebf;textDirection=rtl;" parent="1" vertex="1">
          <mxGeometry x="684" y="555" width="120" height="60" as="geometry" />
        </mxCell>
        <mxCell id="n6aa7DPBWQq8oFq3DAKK-24" value="" style="edgeStyle=orthogonalEdgeStyle;rounded=0;orthogonalLoop=1;jettySize=auto;html=1;labelBackgroundColor=none;fontColor=default;fillColor=#dae8fc;strokeColor=#6c8ebf;textDirection=rtl;" parent="1" source="n6aa7DPBWQq8oFq3DAKK-21" target="n6aa7DPBWQq8oFq3DAKK-23" edge="1">
          <mxGeometry relative="1" as="geometry" />
        </mxCell>
        <mxCell id="n6aa7DPBWQq8oFq3DAKK-78" value="" style="edgeStyle=orthogonalEdgeStyle;rounded=0;orthogonalLoop=1;jettySize=auto;html=1;fillColor=#dae8fc;strokeColor=#6c8ebf;textDirection=rtl;" parent="1" source="n6aa7DPBWQq8oFq3DAKK-21" target="n6aa7DPBWQq8oFq3DAKK-77" edge="1">
          <mxGeometry relative="1" as="geometry" />
        </mxCell>
        <mxCell id="n6aa7DPBWQq8oFq3DAKK-21" value="מחלקה 2 - פיתוח&lt;div&gt;-&lt;/div&gt;&lt;div&gt;10.1.20.0/24&lt;/div&gt;" style="whiteSpace=wrap;html=1;rounded=1;labelBackgroundColor=none;fillColor=#dae8fc;strokeColor=#6c8ebf;textDirection=rtl;" parent="1" vertex="1">
          <mxGeometry x="684" y="695" width="120" height="60" as="geometry" />
        </mxCell>
        <mxCell id="n6aa7DPBWQq8oFq3DAKK-80" value="" style="edgeStyle=orthogonalEdgeStyle;rounded=0;orthogonalLoop=1;jettySize=auto;html=1;fillColor=#dae8fc;strokeColor=#6c8ebf;textDirection=rtl;" parent="1" source="n6aa7DPBWQq8oFq3DAKK-23" target="n6aa7DPBWQq8oFq3DAKK-79" edge="1">
          <mxGeometry relative="1" as="geometry" />
        </mxCell>
        <mxCell id="n6aa7DPBWQq8oFq3DAKK-23" value="מחלקה 3 - שיווק&lt;div&gt;-&lt;/div&gt;&lt;div&gt;10.1.30.0/24&lt;/div&gt;" style="whiteSpace=wrap;html=1;rounded=1;labelBackgroundColor=none;fillColor=#dae8fc;strokeColor=#6c8ebf;textDirection=rtl;" parent="1" vertex="1">
          <mxGeometry x="684" y="835" width="120" height="60" as="geometry" />
        </mxCell>
        <mxCell id="n6aa7DPBWQq8oFq3DAKK-28" value="" style="edgeStyle=orthogonalEdgeStyle;rounded=0;orthogonalLoop=1;jettySize=auto;html=1;labelBackgroundColor=none;fontColor=default;fillColor=#f8cecc;strokeColor=#b85450;textDirection=rtl;" parent="1" source="n6aa7DPBWQq8oFq3DAKK-25" target="n6aa7DPBWQq8oFq3DAKK-27" edge="1">
          <mxGeometry relative="1" as="geometry" />
        </mxCell>
        <mxCell id="n6aa7DPBWQq8oFq3DAKK-86" value="" style="edgeStyle=orthogonalEdgeStyle;rounded=0;orthogonalLoop=1;jettySize=auto;html=1;fillColor=#fad9d5;strokeColor=#ae4132;textDirection=rtl;" parent="1" source="n6aa7DPBWQq8oFq3DAKK-25" target="n6aa7DPBWQq8oFq3DAKK-85" edge="1">
          <mxGeometry relative="1" as="geometry" />
        </mxCell>
        <mxCell id="n6aa7DPBWQq8oFq3DAKK-25" value="מחלקה 1 - כוח אדם&lt;div&gt;-&lt;/div&gt;&lt;div&gt;10.2.10.0/24&lt;/div&gt;" style="whiteSpace=wrap;html=1;rounded=1;labelBackgroundColor=none;fillColor=#f8cecc;strokeColor=#b85450;textDirection=rtl;" parent="1" vertex="1">
          <mxGeometry x="408" y="555" width="120" height="60" as="geometry" />
        </mxCell>
        <mxCell id="n6aa7DPBWQq8oFq3DAKK-31" value="" style="edgeStyle=orthogonalEdgeStyle;rounded=0;orthogonalLoop=1;jettySize=auto;html=1;labelBackgroundColor=none;fontColor=default;fillColor=#f8cecc;strokeColor=#b85450;textDirection=rtl;" parent="1" source="n6aa7DPBWQq8oFq3DAKK-27" target="n6aa7DPBWQq8oFq3DAKK-30" edge="1">
          <mxGeometry relative="1" as="geometry" />
        </mxCell>
        <mxCell id="n6aa7DPBWQq8oFq3DAKK-89" value="" style="edgeStyle=orthogonalEdgeStyle;rounded=0;orthogonalLoop=1;jettySize=auto;html=1;fillColor=#fad9d5;strokeColor=#ae4132;textDirection=rtl;" parent="1" source="n6aa7DPBWQq8oFq3DAKK-27" target="n6aa7DPBWQq8oFq3DAKK-87" edge="1">
          <mxGeometry relative="1" as="geometry" />
        </mxCell>
        <mxCell id="n6aa7DPBWQq8oFq3DAKK-27" value="מחלקה 2 - פניות הציבור&lt;div&gt;-&lt;/div&gt;&lt;div&gt;10.2.20.0/24&lt;/div&gt;" style="whiteSpace=wrap;html=1;rounded=1;labelBackgroundColor=none;fillColor=#f8cecc;strokeColor=#b85450;textDirection=rtl;" parent="1" vertex="1">
          <mxGeometry x="408" y="695" width="120" height="60" as="geometry" />
        </mxCell>
        <mxCell id="n6aa7DPBWQq8oFq3DAKK-90" value="" style="edgeStyle=orthogonalEdgeStyle;rounded=0;orthogonalLoop=1;jettySize=auto;html=1;fillColor=#fad9d5;strokeColor=#ae4132;textDirection=rtl;" parent="1" source="n6aa7DPBWQq8oFq3DAKK-30" target="n6aa7DPBWQq8oFq3DAKK-88" edge="1">
          <mxGeometry relative="1" as="geometry" />
        </mxCell>
        <mxCell id="n6aa7DPBWQq8oFq3DAKK-30" value="מחלקה 3 - הנה&quot;ח&lt;div&gt;-&lt;/div&gt;&lt;div&gt;10.2.30.0/24&lt;/div&gt;" style="whiteSpace=wrap;html=1;rounded=1;labelBackgroundColor=none;fillColor=#f8cecc;strokeColor=#b85450;textDirection=rtl;" parent="1" vertex="1">
          <mxGeometry x="408" y="835" width="120" height="60" as="geometry" />
        </mxCell>
        <mxCell id="n6aa7DPBWQq8oFq3DAKK-35" value="" style="edgeStyle=orthogonalEdgeStyle;rounded=0;orthogonalLoop=1;jettySize=auto;html=1;labelBackgroundColor=none;fontColor=default;fillColor=#d5e8d4;strokeColor=#82b366;textDirection=rtl;" parent="1" source="n6aa7DPBWQq8oFq3DAKK-32" target="n6aa7DPBWQq8oFq3DAKK-34" edge="1">
          <mxGeometry relative="1" as="geometry" />
        </mxCell>
        <mxCell id="n6aa7DPBWQq8oFq3DAKK-93" value="" style="edgeStyle=orthogonalEdgeStyle;rounded=0;orthogonalLoop=1;jettySize=auto;html=1;fillColor=#d5e8d4;strokeColor=#82b366;textDirection=rtl;" parent="1" source="n6aa7DPBWQq8oFq3DAKK-32" target="n6aa7DPBWQq8oFq3DAKK-92" edge="1">
          <mxGeometry relative="1" as="geometry" />
        </mxCell>
        <mxCell id="n6aa7DPBWQq8oFq3DAKK-32" value="מחלקה 1 - משפטית&lt;div&gt;-&lt;/div&gt;&lt;div&gt;10.3.10.0/24&lt;/div&gt;" style="whiteSpace=wrap;html=1;rounded=1;labelBackgroundColor=none;fillColor=#d5e8d4;strokeColor=#82b366;textDirection=rtl;" parent="1" vertex="1">
          <mxGeometry x="134" y="560" width="120" height="60" as="geometry" />
        </mxCell>
        <mxCell id="n6aa7DPBWQq8oFq3DAKK-37" value="" style="edgeStyle=orthogonalEdgeStyle;rounded=0;orthogonalLoop=1;jettySize=auto;html=1;labelBackgroundColor=none;fontColor=default;fillColor=#d5e8d4;strokeColor=#82b366;textDirection=rtl;" parent="1" source="n6aa7DPBWQq8oFq3DAKK-34" target="n6aa7DPBWQq8oFq3DAKK-36" edge="1">
          <mxGeometry relative="1" as="geometry" />
        </mxCell>
        <mxCell id="n6aa7DPBWQq8oFq3DAKK-95" value="" style="edgeStyle=orthogonalEdgeStyle;rounded=0;orthogonalLoop=1;jettySize=auto;html=1;fillColor=#d5e8d4;strokeColor=#82b366;textDirection=rtl;" parent="1" source="n6aa7DPBWQq8oFq3DAKK-34" target="n6aa7DPBWQq8oFq3DAKK-94" edge="1">
          <mxGeometry relative="1" as="geometry" />
        </mxCell>
        <mxCell id="n6aa7DPBWQq8oFq3DAKK-34" value="מחלקה 2 - רכש&lt;div&gt;-&lt;/div&gt;&lt;div&gt;10.3.20.0/24&lt;/div&gt;" style="whiteSpace=wrap;html=1;rounded=1;labelBackgroundColor=none;fillColor=#d5e8d4;strokeColor=#82b366;textDirection=rtl;" parent="1" vertex="1">
          <mxGeometry x="134" y="700" width="120" height="60" as="geometry" />
        </mxCell>
        <mxCell id="n6aa7DPBWQq8oFq3DAKK-97" value="" style="edgeStyle=orthogonalEdgeStyle;rounded=0;orthogonalLoop=1;jettySize=auto;html=1;fillColor=#d5e8d4;strokeColor=#82b366;textDirection=rtl;" parent="1" source="n6aa7DPBWQq8oFq3DAKK-36" target="n6aa7DPBWQq8oFq3DAKK-96" edge="1">
          <mxGeometry relative="1" as="geometry" />
        </mxCell>
        <mxCell id="n6aa7DPBWQq8oFq3DAKK-36" value="מחלקה 3 - תחזוקה&lt;div&gt;-&lt;/div&gt;&lt;div&gt;10.3.30.0/24&lt;/div&gt;" style="whiteSpace=wrap;html=1;rounded=1;labelBackgroundColor=none;fillColor=#d5e8d4;strokeColor=#82b366;textDirection=rtl;" parent="1" vertex="1">
          <mxGeometry x="134" y="840" width="120" height="60" as="geometry" />
        </mxCell>
        <mxCell id="n6aa7DPBWQq8oFq3DAKK-38" value="כתובות ה-IP יורדות בהיררכיה" style="text;html=1;align=center;verticalAlign=middle;resizable=0;points=[];autosize=1;strokeColor=none;fillColor=none;textDirection=rtl;" parent="1" vertex="1">
          <mxGeometry x="420" y="1480" width="160" height="30" as="geometry" />
        </mxCell>
        <mxCell id="n6aa7DPBWQq8oFq3DAKK-50" value="" style="edgeStyle=orthogonalEdgeStyle;rounded=0;orthogonalLoop=1;jettySize=auto;html=1;textDirection=rtl;fillColor=#fad7ac;strokeColor=#b46504;" parent="1" source="n6aa7DPBWQq8oFq3DAKK-40" target="n6aa7DPBWQq8oFq3DAKK-49" edge="1">
          <mxGeometry relative="1" as="geometry" />
        </mxCell>
        <mxCell id="n6aa7DPBWQq8oFq3DAKK-54" value="" style="edgeStyle=orthogonalEdgeStyle;rounded=0;orthogonalLoop=1;jettySize=auto;html=1;textDirection=rtl;fillColor=#fad7ac;strokeColor=#b46504;" parent="1" source="n6aa7DPBWQq8oFq3DAKK-40" target="n6aa7DPBWQq8oFq3DAKK-46" edge="1">
          <mxGeometry relative="1" as="geometry" />
        </mxCell>
        <mxCell id="n6aa7DPBWQq8oFq3DAKK-40" value="בקומה הראשונה יש את הכתובת הראשית" style="rounded=1;whiteSpace=wrap;html=1;textDirection=rtl;arcSize=50;fillColor=#fad7ac;strokeColor=#b46504;" parent="1" vertex="1">
          <mxGeometry x="440" y="1530" width="120" height="60" as="geometry" />
        </mxCell>
        <mxCell id="n6aa7DPBWQq8oFq3DAKK-46" value="&lt;div&gt;&lt;span style=&quot;background-color: initial;&quot;&gt;10.0.0.0&lt;/span&gt;&lt;br&gt;&lt;/div&gt;&lt;div&gt;רק האוקטטה הראשונה&lt;br&gt;&amp;nbsp;מורה על שם הרשת&lt;/div&gt;" style="text;html=1;align=center;verticalAlign=middle;resizable=0;points=[];autosize=1;strokeColor=none;fillColor=none;textDirection=rtl;" parent="1" vertex="1">
          <mxGeometry x="250" y="1530" width="130" height="60" as="geometry" />
        </mxCell>
        <mxCell id="n6aa7DPBWQq8oFq3DAKK-56" value="" style="edgeStyle=orthogonalEdgeStyle;rounded=0;orthogonalLoop=1;jettySize=auto;html=1;fillColor=#fad9d5;strokeColor=#ae4132;textDirection=rtl;" parent="1" source="n6aa7DPBWQq8oFq3DAKK-49" target="n6aa7DPBWQq8oFq3DAKK-55" edge="1">
          <mxGeometry relative="1" as="geometry" />
        </mxCell>
        <mxCell id="n6aa7DPBWQq8oFq3DAKK-64" value="" style="edgeStyle=orthogonalEdgeStyle;rounded=0;orthogonalLoop=1;jettySize=auto;html=1;fillColor=#fad9d5;strokeColor=#ae4132;textDirection=rtl;" parent="1" source="n6aa7DPBWQq8oFq3DAKK-49" target="n6aa7DPBWQq8oFq3DAKK-63" edge="1">
          <mxGeometry relative="1" as="geometry" />
        </mxCell>
        <mxCell id="n6aa7DPBWQq8oFq3DAKK-49" value="בקומה השניה יש את כתובת המשנה&lt;br&gt;&amp;nbsp;- לכל סניף" style="shape=hexagon;perimeter=hexagonPerimeter2;whiteSpace=wrap;html=1;fixedSize=1;rounded=1;arcSize=50;textDirection=rtl;fillColor=#fad9d5;strokeColor=#ae4132;" parent="1" vertex="1">
          <mxGeometry x="440" y="1650" width="120" height="80" as="geometry" />
        </mxCell>
        <mxCell id="n6aa7DPBWQq8oFq3DAKK-55" value="10.1.0.0/16&lt;div&gt;האוקטטה השניה מורה על שם הסניף&lt;br&gt;&amp;nbsp;- בתוך הרשת שנקראה 10, &lt;br&gt;שזה האוקטטה הראשונה&lt;/div&gt;" style="text;html=1;align=center;verticalAlign=middle;resizable=0;points=[];autosize=1;strokeColor=none;fillColor=none;textDirection=rtl;" parent="1" vertex="1">
          <mxGeometry x="190" y="1655" width="190" height="70" as="geometry" />
        </mxCell>
        <mxCell id="n6aa7DPBWQq8oFq3DAKK-66" value="" style="edgeStyle=orthogonalEdgeStyle;rounded=0;orthogonalLoop=1;jettySize=auto;html=1;fillColor=#b1ddf0;strokeColor=#10739e;textDirection=rtl;" parent="1" source="n6aa7DPBWQq8oFq3DAKK-63" target="n6aa7DPBWQq8oFq3DAKK-65" edge="1">
          <mxGeometry relative="1" as="geometry" />
        </mxCell>
        <mxCell id="n6aa7DPBWQq8oFq3DAKK-84" value="" style="edgeStyle=orthogonalEdgeStyle;rounded=0;orthogonalLoop=1;jettySize=auto;html=1;fillColor=#b1ddf0;strokeColor=#10739e;textDirection=rtl;" parent="1" source="n6aa7DPBWQq8oFq3DAKK-63" target="n6aa7DPBWQq8oFq3DAKK-81" edge="1">
          <mxGeometry relative="1" as="geometry" />
        </mxCell>
        <mxCell id="n6aa7DPBWQq8oFq3DAKK-63" value="בקומה השלישית והלאה יש את שם המחלקה" style="rounded=1;whiteSpace=wrap;html=1;fillColor=#b1ddf0;strokeColor=#10739e;textDirection=rtl;" parent="1" vertex="1">
          <mxGeometry x="440" y="1820" width="120" height="60" as="geometry" />
        </mxCell>
        <mxCell id="n6aa7DPBWQq8oFq3DAKK-65" value="10.1.20.0/24&lt;div&gt;האוקטטה הראשונה מורה על שם הרשת, &lt;br&gt;השניה על הסניף, והשלישית על המחלקה.&lt;/div&gt;" style="text;html=1;align=center;verticalAlign=middle;resizable=0;points=[];autosize=1;strokeColor=none;fillColor=none;textDirection=rtl;" parent="1" vertex="1">
          <mxGeometry x="160" y="1820" width="220" height="60" as="geometry" />
        </mxCell>
        <mxCell id="n6aa7DPBWQq8oFq3DAKK-74" value="הטווח:&lt;div&gt;10.1.10.1&lt;/div&gt;&lt;div&gt;10.1.10.2&lt;/div&gt;&lt;div&gt;10.1.10.3&lt;/div&gt;" style="text;html=1;align=center;verticalAlign=middle;resizable=0;points=[];autosize=1;strokeColor=none;fillColor=none;textDirection=rtl;" parent="1" vertex="1">
          <mxGeometry x="574" y="550" width="70" height="70" as="geometry" />
        </mxCell>
        <mxCell id="n6aa7DPBWQq8oFq3DAKK-77" value="הטווח:&lt;div&gt;10.1.20.1&lt;/div&gt;&lt;div&gt;10.1.20.2&lt;/div&gt;&lt;div&gt;10.1.20.3&lt;/div&gt;" style="text;html=1;align=center;verticalAlign=middle;resizable=0;points=[];autosize=1;strokeColor=none;fillColor=none;textDirection=rtl;" parent="1" vertex="1">
          <mxGeometry x="574" y="690" width="70" height="70" as="geometry" />
        </mxCell>
        <mxCell id="n6aa7DPBWQq8oFq3DAKK-79" value="הטווח:&lt;div&gt;10.1.30.1&lt;/div&gt;&lt;div&gt;10.1.30.2&lt;/div&gt;&lt;div&gt;10.1.30.3&lt;/div&gt;" style="text;html=1;align=center;verticalAlign=middle;resizable=0;points=[];autosize=1;strokeColor=none;fillColor=none;textDirection=rtl;" parent="1" vertex="1">
          <mxGeometry x="574" y="830" width="70" height="70" as="geometry" />
        </mxCell>
        <mxCell id="n6aa7DPBWQq8oFq3DAKK-81" value="בכל מחלקה &lt;br&gt;המחשבים מתפרסים על פי הסדר ההיררכי &lt;br&gt;של האוקטטה הרביעית" style="text;html=1;align=center;verticalAlign=middle;resizable=0;points=[];autosize=1;strokeColor=none;fillColor=none;textDirection=rtl;" parent="1" vertex="1">
          <mxGeometry x="390" y="1940" width="220" height="60" as="geometry" />
        </mxCell>
        <mxCell id="n6aa7DPBWQq8oFq3DAKK-85" value="הטווח:&lt;div&gt;10.2.10.1&lt;/div&gt;&lt;div&gt;10.2.10.2&lt;/div&gt;&lt;div&gt;10.2.10.3&lt;/div&gt;" style="text;html=1;align=center;verticalAlign=middle;resizable=0;points=[];autosize=1;strokeColor=none;fillColor=none;textDirection=rtl;" parent="1" vertex="1">
          <mxGeometry x="299" y="550" width="70" height="70" as="geometry" />
        </mxCell>
        <mxCell id="n6aa7DPBWQq8oFq3DAKK-87" value="הטווח:&lt;div&gt;10.2.20.1&lt;/div&gt;&lt;div&gt;10.2.20.2&lt;/div&gt;&lt;div&gt;10.2.20.3&lt;/div&gt;" style="text;html=1;align=center;verticalAlign=middle;resizable=0;points=[];autosize=1;strokeColor=none;fillColor=none;textDirection=rtl;" parent="1" vertex="1">
          <mxGeometry x="299" y="690" width="70" height="70" as="geometry" />
        </mxCell>
        <mxCell id="n6aa7DPBWQq8oFq3DAKK-88" value="הטווח:&lt;div&gt;10.2.30.1&lt;/div&gt;&lt;div&gt;10.2.30.2&lt;/div&gt;&lt;div&gt;10.2.30.3&lt;/div&gt;" style="text;html=1;align=center;verticalAlign=middle;resizable=0;points=[];autosize=1;strokeColor=none;fillColor=none;textDirection=rtl;" parent="1" vertex="1">
          <mxGeometry x="299" y="830" width="70" height="70" as="geometry" />
        </mxCell>
        <mxCell id="n6aa7DPBWQq8oFq3DAKK-92" value="הטווח:&lt;div&gt;10.3.10.1&lt;/div&gt;&lt;div&gt;10.3.10.2&lt;/div&gt;&lt;div&gt;10.3.10.3&lt;/div&gt;" style="text;html=1;align=center;verticalAlign=middle;resizable=0;points=[];autosize=1;strokeColor=none;fillColor=none;textDirection=rtl;" parent="1" vertex="1">
          <mxGeometry x="24" y="555" width="70" height="70" as="geometry" />
        </mxCell>
        <mxCell id="n6aa7DPBWQq8oFq3DAKK-94" value="הטווח:&lt;div&gt;10.3.20.1&lt;/div&gt;&lt;div&gt;10.3.20.2&lt;/div&gt;&lt;div&gt;10.3.20.3&lt;/div&gt;" style="text;html=1;align=center;verticalAlign=middle;resizable=0;points=[];autosize=1;strokeColor=none;fillColor=none;textDirection=rtl;" parent="1" vertex="1">
          <mxGeometry x="24" y="695" width="70" height="70" as="geometry" />
        </mxCell>
        <mxCell id="n6aa7DPBWQq8oFq3DAKK-96" value="הטווח:&lt;div&gt;10.3.30.1&lt;/div&gt;&lt;div&gt;10.3.30.2&lt;/div&gt;&lt;div&gt;10.3.30.3&lt;/div&gt;" style="text;html=1;align=center;verticalAlign=middle;resizable=0;points=[];autosize=1;strokeColor=none;fillColor=none;textDirection=rtl;" parent="1" vertex="1">
          <mxGeometry x="24" y="835" width="70" height="70" as="geometry" />
        </mxCell>
      </root>
    </mxGraphModel>
  </diagram>
</mxfile>
